HIERARCHY
ROOT SpineBase
{
  OFFSET 0.000000 0.000000 0.000000
  CHANNELS 6 Xposition Yposition Zposition Zrotation Xrotation Yrotation
  JOINT SpineMid
  {
    OFFSET 0.000000 32.280378 0.000000
    CHANNELS 3 Zrotation Xrotation Yrotation
    JOINT SpineShoulder
    {
      OFFSET 0.189981 24.043941 -0.778432
      CHANNELS 3 Zrotation Xrotation Yrotation
      JOINT Neck
      {
        OFFSET 0.143366 7.985501 -0.596333
        CHANNELS 3 Zrotation Xrotation Yrotation
        JOINT Head
        {
          OFFSET -1.414036 11.895845 3.546676
          CHANNELS 3 Zrotation Xrotation Yrotation
          End Site
          {
            OFFSET 0 0 0
          }
        }
      }
      JOINT ShoulderLeft
      {
        OFFSET -12.012564 -6.206729 -2.599546
        CHANNELS 3 Zrotation Xrotation Yrotation
        JOINT ElbowLeft
        {
          OFFSET -4.882616 -20.552348 6.523709
          CHANNELS 3 Zrotation Xrotation Yrotation
          JOINT WristLeft
          {
            OFFSET 3.767777 -21.960965 3.839573
            CHANNELS 3 Zrotation Xrotation Yrotation
            JOINT HandLeft
            {
              OFFSET -0.989404 -3.718592 -9.006127
              CHANNELS 3 Zrotation Xrotation Yrotation
              JOINT HandTipLeft
              {
                OFFSET 0.351414 -0.715035 -1.021237
                CHANNELS 3 Zrotation Xrotation Yrotation
                End Site
                {
                  OFFSET 0 0 0
                }
              }
              JOINT ThumbLeft
              {
                OFFSET 0.655518 1.479662 -2.256867
                CHANNELS 3 Zrotation Xrotation Yrotation
                End Site
                {
                  OFFSET 0 0 0
                }
              }
            }
          }
        }
      }
      JOINT ShoulderRight
      {
        OFFSET 13.245373 -6.799149 -9.010759
        CHANNELS 3 Zrotation Xrotation Yrotation
        JOINT ElbowRight
        {
          OFFSET 7.582579 -22.904731 7.050326
          CHANNELS 3 Zrotation Xrotation Yrotation
          JOINT WristRight
          {
            OFFSET 1.448989 -17.616231 13.199103
            CHANNELS 3 Zrotation Xrotation Yrotation
            JOINT HandRight
            {
              OFFSET 0.433191 -6.010885 4.781798
              CHANNELS 3 Zrotation Xrotation Yrotation
              JOINT HandTipRight
              {
                OFFSET -0.184768 1.589272 7.982076
                CHANNELS 3 Zrotation Xrotation Yrotation
                End Site
                {
                  OFFSET 0 0 0
                }
              }
              JOINT ThumbRight
              {
                OFFSET -2.047587 3.191375 -14.875260
                CHANNELS 3 Zrotation Xrotation Yrotation
                End Site
                {
                  OFFSET 0 0 0
                }
              }
            }
          }
        }
      }
    }
  }
  JOINT HipLeft
  {
    OFFSET -5.390421 0.886148 -1.946444
    CHANNELS 3 Zrotation Xrotation Yrotation
    JOINT KneeLeft
    {
      OFFSET -2.992443 -29.761963 -2.966130
      CHANNELS 3 Zrotation Xrotation Yrotation
      JOINT AnkleLeft
      {
        OFFSET -1.242866 -23.994488 -1.671392
        CHANNELS 3 Zrotation Xrotation Yrotation
        JOINT FootLeft
        {
          OFFSET -1.204919 -1.140965 -10.287666
          CHANNELS 3 Zrotation Xrotation Yrotation
          End Site
          {
            OFFSET 0 0 0
          }
        }
      }
    }
  }
  JOINT HipRight
  {
    OFFSET 6.778003 2.247657 -4.692677
    CHANNELS 3 Zrotation Xrotation Yrotation
    JOINT KneeRight
    {
      OFFSET 1.397039 -29.705310 -5.220564
      CHANNELS 3 Zrotation Xrotation Yrotation
      JOINT AnkleRight
      {
        OFFSET -0.441274 -25.318901 -3.599786
        CHANNELS 3 Zrotation Xrotation Yrotation
        JOINT FootRight
        {
          OFFSET -1.392799 -1.083438 -10.288602
          CHANNELS 3 Zrotation Xrotation Yrotation
          End Site
          {
            OFFSET 0 0 0
          }
        }
      }
    }
  }
}
MOTION
Frames: 12
Frame Time: 0.033333
-52.762219 54.409375 258.028910 -0.073261 -0.041459 12.789938 0.080621 0.024212 -12.789981 -0.000000 0.000000 0.000000 0.362679 -3.125221 -0.473488 0.000000 0.000000 0.000000 1.304585 -0.134009 0.448525 3.377232 2.599952 0.681887 -6.940013 -8.731524 6.127340 -6.233970 -2.658179 0.094242 0.000000 0.000000 0.000000 0.000000 0.000000 0.000000 -2.098703 3.903140 0.730149 2.294972 -7.121327 -0.622249 -0.034295 0.140154 0.028131 -0.240008 3.051421 0.036194 0.000000 0.000000 0.000000 0.000000 0.000000 0.000000 -0.520852 0.980750 -12.785555 0.798315 -0.799645 0.006420 -0.000000 0.000000 0.000000 0.000000 0.000000 0.000000 1.167096 1.064398 -12.886804 -2.973775 -1.456731 0.335202 2.147062 0.187013 -0.312093 0.000000 0.000000 0.000000
-52.706996 54.398768 258.094569 -0.037288 -0.052428 12.818010 0.047990 0.042849 -12.818045 -0.000000 0.000000 0.000000 0.401121 -2.928327 -0.460817 0.000000 0.000000 0.000000 2.042645 0.073056 0.632586 1.778132 1.874245 0.303927 -5.561671 -11.005752 6.335663 -4.172249 2.416449 -1.461961 0.000000 0.000000 0.000000 0.000000 0.000000 0.000000 -1.912531 4.041614 0.830863 2.126396 -7.283156 -0.705866 -0.035892 0.140519 0.028565 -0.269871 3.072421 0.014332 0.000000 0.000000 0.000000 0.000000 0.000000 0.000000 -0.590499 1.028664 -12.810649 0.328733 -0.185001 0.002923 0.512473 -0.634658 0.000015 0.000000 0.000000 0.000000 1.165693 1.107568 -12.918569 -3.132747 -1.453079 0.352277 2.281533 0.150429 -0.330096 0.000000 0.000000 0.000000
-52.658630 54.390071 258.154258 0.003499 -0.067796 12.892511 0.011716 0.066867 -12.892516 -0.000000 0.000000 0.000000 0.371809 -2.715237 -0.427712 0.000000 0.000000 0.000000 2.448400 0.153109 0.741711 -0.509220 0.784625 -0.262479 -1.504522 -20.781753 6.342377 -3.940501 15.633890 -0.064120 0.000000 0.000000 0.000000 0.000000 0.000000 0.000000 -1.733024 4.163101 0.923236 1.956499 -7.425199 -0.789059 -0.036891 0.141013 0.029071 -0.292037 3.091353 -0.001637 0.000000 0.000000 0.000000 0.000000 0.000000 0.000000 -0.665415 1.087958 -12.882108 0.359229 -0.099884 -0.003138 0.528622 -0.744426 0.005175 0.000000 0.000000 0.000000 1.150238 1.155352 -12.994933 -3.235006 -1.480891 0.362202 2.370518 0.148212 -0.342792 0.000000 0.000000 0.000000
-52.621893 54.380727 258.201437 0.039119 -0.079968 12.985621 -0.020149 0.086713 -12.985578 -0.000000 0.000000 0.000000 0.338450 -2.372385 -0.378141 0.000000 0.000000 0.000000 2.874428 0.493922 0.788623 -5.423230 -2.016346 -1.583079 9.751836 -44.606492 9.538131 -8.738903 43.953491 7.170371 0.000000 0.000000 0.000000 0.000000 0.000000 0.000000 -1.626757 4.238322 0.978890 1.858106 -7.513422 -0.837428 -0.037574 0.141591 0.029443 -0.307562 3.103312 -0.012919 0.000000 0.000000 0.000000 0.000000 0.000000 0.000000 -0.714930 1.132443 -12.974073 0.358584 -0.002706 -0.007438 0.553441 -0.860170 0.010167 0.000000 0.000000 0.000000 1.180129 1.201795 -13.096531 -3.411713 -1.532346 0.381306 2.495445 0.156462 -0.361053 0.000000 0.000000 0.000000
-52.589671 54.375532 258.245023 0.060150 -0.080411 13.156545 -0.040268 0.091991 -13.156470 -0.000000 0.000000 0.000000 0.314152 -2.131657 -0.343023 0.000000 0.000000 0.000000 1.991653 -0.589856 0.784585 -5.997786 -1.249607 -1.816198 19.449358 -63.273499 12.038549 -22.487144 58.596770 22.778200 0.000000 0.000000 0.000000 0.000000 0.000000 0.000000 -1.605244 4.285526 1.001453 -1.763889 -6.461240 -3.775327 1.383764 -1.501996 0.768230 1.813799 3.828550 1.701610 0.000000 0.000000 0.000000 0.000000 0.000000 0.000000 -0.746416 1.185134 -13.146159 0.373232 0.031961 -0.008580 0.563279 -0.935656 0.013840 0.000000 0.000000 0.000000 1.223485 1.250465 -13.274322 -3.585862 -1.625047 0.397715 2.622128 0.187712 -0.380503 0.000000 0.000000 0.000000
-52.566096 54.368014 258.281934 0.070574 -0.070494 13.284159 -0.052488 0.084824 -13.284077 -0.000000 0.000000 0.000000 0.241233 -1.925507 -0.298190 0.000000 0.000000 0.000000 0.969308 -1.786641 0.745084 -3.002860 1.531041 -1.065427 22.276677 -76.521521 8.478132 -51.606442 67.155912 55.639655 0.000000 0.000000 0.000000 0.000000 0.000000 0.000000 -1.613213 4.291418 1.001372 -0.912491 -6.738134 -3.092910 -0.145926 0.721538 -0.117400 2.457304 1.827458 2.070503 0.000000 0.000000 0.000000 0.000000 0.000000 0.000000 -0.756067 1.212937 -13.276184 0.382535 0.045822 -0.008338 0.561570 -0.982014 0.016577 0.000000 0.000000 0.000000 1.273579 1.278526 -13.409165 -3.718069 -1.752975 0.409670 2.705701 0.263296 -0.395601 0.000000 0.000000 0.000000
-52.540553 54.367040 258.312643 0.086336 -0.058180 13.363232 -0.070552 0.076559 -13.363141 -0.000000 0.000000 0.000000 0.139210 -1.821271 -0.256981 0.000000 0.000000 0.000000 0.037650 -2.719783 0.654218 -0.411672 3.752266 -0.526486 21.646320 -83.827785 4.481729 -65.080802 64.368891 71.602813 0.000000 0.000000 0.000000 0.000000 0.000000 0.000000 -1.591866 4.347356 1.026971 5.841702 -8.604276 2.408718 -0.127890 3.644424 0.201554 -3.201393 5.025210 -5.123432 0.000000 0.000000 0.000000 0.000000 0.000000 0.000000 -0.772099 1.243836 -13.358041 0.379199 0.010084 -0.004771 0.573258 -0.983532 0.015948 0.000000 0.000000 0.000000 1.238331 1.285051 -13.483565 -3.712093 -1.767948 0.406671 2.721783 0.266557 -0.398060 0.000000 0.000000 0.000000
-52.522614 54.370055 258.337632 0.092693 -0.039579 13.335762 -0.081064 0.059891 -13.335687 -0.000000 0.000000 0.000000 0.031629 -1.768421 -0.220173 0.000000 0.000000 0.000000 -0.611220 -3.178511 0.538906 1.941128 5.268231 -0.083933 17.502823 -85.942405 1.040489 -67.522300 63.753449 74.593553 0.000000 0.000000 0.000000 0.000000 0.000000 0.000000 -1.601019 4.472979 1.068978 15.958635 -10.134440 10.749721 0.532645 5.923531 0.374212 -12.815875 5.080239 -11.672907 0.000000 0.000000 0.000000 0.000000 0.000000 0.000000 -0.768335 1.241396 -13.333735 0.356332 0.002792 -0.001791 0.585052 -0.993813 0.015813 0.000000 0.000000 0.000000 1.180332 1.263714 -13.448100 -3.628002 -1.733146 0.396670 2.681752 0.248774 -0.391551 0.000000 0.000000 0.000000
-52.502018 54.370673 258.357738 0.100378 -0.016253 13.252151 -0.093980 0.038830 -13.252105 -0.000000 0.000000 0.000000 -0.102870 -1.767266 -0.181860 0.000000 0.000000 0.000000 -1.112507 -3.338296 0.403081 3.493384 6.073125 0.219498 6.948751 -80.171919 -8.164450 -55.134878 60.898946 62.167165 0.000000 0.000000 0.000000 0.000000 0.000000 0.000000 -1.584573 4.652545 1.137047 34.520905 -8.764382 26.195239 9.276092 6.188376 5.168106 -39.384991 10.062920 -24.077867 0.000000 0.000000 0.000000 0.000000 0.000000 0.000000 -0.785031 1.216612 -13.249935 0.312206 0.041048 -0.001072 0.730458 -1.024137 -0.889399 0.000000 0.000000 0.000000 1.077907 1.223163 -13.350669 -3.481118 -1.645717 0.380315 2.708082 0.212088 -1.278205 0.000000 0.000000 0.000000
-52.488053 54.367261 258.383145 0.097824 0.020016 13.138134 -0.099813 0.002743 -13.138149 -0.000000 0.000000 0.000000 -0.068155 -1.739098 -0.188319 0.000000 0.000000 0.000000 -1.702678 -3.373164 0.208270 -1.837448 4.722997 -0.451014 37.827854 -81.628305 22.927022 -52.646042 47.084650 81.127718 0.000000 0.000000 0.000000 0.000000 0.000000 0.000000 -1.604445 4.882256 1.213249 65.698256 6.233312 50.869854 17.265368 2.357512 11.570900 -84.594096 33.037476 -19.819375 0.000000 0.000000 0.000000 0.000000 0.000000 0.000000 -0.791494 1.170049 -13.135990 0.228685 0.121623 0.000061 0.825874 -1.084091 -1.042621 0.000000 0.000000 0.000000 1.020083 1.173611 -13.228720 -3.390755 -1.575615 0.370594 2.676009 0.184114 -1.419883 0.000000 0.000000 0.000000
-52.480869 54.357772 258.412369 0.093209 0.054587 12.991795 -0.103095 -0.032235 -12.991868 -0.000000 0.000000 0.000000 -0.011065 -1.643480 -0.193058 0.000000 0.000000 0.000000 -2.106034 -3.399060 0.075642 -0.781495 5.286405 -0.164489 14.710811 -74.928118 -5.350827 -48.347751 40.850839 75.023678 0.000000 0.000000 0.000000 0.000000 0.000000 0.000000 -1.663398 5.178967 1.303193 87.591233 29.152917 64.382962 10.208598 -7.245673 23.410004 -124.968601 31.833698 22.939786 0.000000 0.000000 0.000000 0.000000 0.000000 0.000000 -0.789855 1.127970 -12.990762 0.123484 0.177702 0.004172 0.938474 -1.123949 -1.204656 0.000000 0.000000 0.000000 0.950919 1.135370 -13.071538 -3.253399 -1.484839 0.354037 2.612561 0.129908 -1.562539 0.000000 0.000000 0.000000
-52.470687 54.348860 258.437830 0.111720 0.077812 12.811855 -0.126193 -0.051101 -12.811987 -0.000000 0.000000 0.000000 -0.014166 -1.535618 -0.179232 0.000000 0.000000 0.000000 -2.042585 -3.035661 0.018562 5.878004 5.123781 0.626503 5.720830 -79.550234 -6.941191 7.234202 77.993640 -29.410821 0.000000 0.000000 0.000000 0.000000 0.000000 0.000000 -1.746093 5.491565 1.393135 94.920509 39.869351 66.857819 2.522052 -8.531358 24.620596 -114.028458 -5.401068 39.104501 0.000000 0.000000 0.000000 0.000000 0.000000 0.000000 -0.818805 1.085132 -12.809280 0.030810 0.249305 0.005842 1.044500 -1.165621 -1.359304 0.000000 0.000000 0.000000 0.837330 1.110752 -12.877255 -3.052010 -1.363969 0.329527 2.507510 0.049190 -1.691025 0.000000 0.000000 0.000000
